# xmcd CD database file
#
# Track frame offsets:
#	150
#	15267
#	29765
#	43114
#	56620
#	71950
#	85886
#	99793
#	114170
#	126797
#	141226
#	156288
#	169437
#	184658
#	199903
#
# Disc length: 2838 seconds
#
# Revision: 5
# Processed by: cddbd v1.5.2PL0 Copyright (c) Steve Scherf et al.
# Submitted via: CDex 1.51
#
DISCID=d00b140f
DTITLE=Louis Armstrong - Vol.01 - Got No Blues
DYEAR=1900
DGENRE=Jazz
TTITLE0=Got No Blues
TTITLE1=Once In A While
TTITLE2=I'm Not Rough
TTITLE3=Hotter Than That
TTITLE4=Savoy Blues
TTITLE5=Fireworks
TTITLE6=Skip The Gutter
TTITLE7=A Monday Date
TTITLE8=Don't Jive Me
TTITLE9=West End Blues
TTITLE10=Sugar Foot Strut
TTITLE11=Two Deuces
TTITLE12=Squeeze Me
TTITLE13=Knee Drops
TTITLE14=No, Papa No
EXTD=
EXTT0=
EXTT1=
EXTT2=
EXTT3=
EXTT4=
EXTT5=
EXTT6=
EXTT7=
EXTT8=
EXTT9=
EXTT10=
EXTT11=
EXTT12=
EXTT13=
EXTT14=
PLAYORDER=
